# File created by Blade
# Date/Time:  Wed Apr 08 17:24:25 2015
#---------------------------------------------------------
:version 1.10
:name HOM
:units
  mass 1.0
  length 1.000000
  angle deg
:documentation
     Acclaim Skeleton File
:root
   axis xyz
   order TX TY TZ RX RY RZ
   position 0.000000 0.000000 0.000000
   orientation 0 0 0
:bonedata
   begin
      id 1
      name Spine_dum
      direction 0.000000 1.000000 0.000000
      length 5.893853
      axis 0.0 0.0 0.0 xyz
   end
   begin
      id 2
      name LeftUpLeg_dum
      direction 1.000000 0.000000 0.000000
      length 3.697939
      axis 0.0 0.0 0.0 xyz
   end
   begin
      id 3
      name RightUpLeg_dum
      direction -1.000000 0.000000 0.000000
      length 3.697939
      axis 0.0 0.0 0.0 xyz
   end
   begin
      id 4
      name Spine
      direction 0.000000 1.000000 0.000000
      length 0.000000
      axis 0.0 0.0 0.0 xyz
      dof rx ry rz
   end
   begin
      id 5
      name Spine_dum1
      direction 0.000000 1.000000 0.000000
      length 16.447146
      axis 0.0 0.0 0.0 xyz
   end
   begin
      id 6
      name Spine_dum2
      direction 0.000000 1.000000 0.000000
      length 10.900383
      axis 0.0 0.0 0.0 xyz
   end
   begin
      id 7
      name Spine_dum3
      direction 0.000000 1.000000 0.000000
      length 10.900383
      axis 0.0 0.0 0.0 xyz
   end
   begin
      id 8
      name Head
      direction 0.000000 1.000000 0.000000
      length 4.527550
      axis 0.0 0.0 0.0 xyz
      dof rx ry rz
   end
   begin
      id 9
      name LeftShoulder
      direction 1.000000 0.000000 0.000000
      length 8.219464
      axis 0.0 0.0 -90.0 xyz
      dof rx ry rz
   end
   begin
      id 10
      name LeftArm
      direction 1.000000 0.000000 0.000000
      length 11.094937
      axis 0.0 0.0 -90.0 xyz
      dof rx ry rz
   end
   begin
      id 11
      name LeftForeArm
      direction 1.000000 0.000000 0.000000
      length 9.103875
      axis 0.0 0.0 -90.0 xyz
      dof ry rz rx
   end
   begin
      id 12
      name LeftHand
      direction 0.000000 0.000000 0.000000
      length 0.000000
      axis 0.0 0.0 -90.0 xyz
      dof rx ry rz
   end
   begin
      id 13
      name LeftHand_dum1
      direction 0.000000 0.000000 0.000000
      length 0.000000
      axis 0.0 0.0 -90.0 xyz
   end
   begin
      id 14
      name LeftHand_dum2
      direction 1.000000 0.000000 0.000000
      length 3.937000
      axis 0.0 0.0 -90.0 xyz
   end
   begin
      id 15
      name LeftHandThumb1
      direction 0.000000 0.000000 1.000000
      length 3.937000
      axis 0.0 0.0 -90.0 xyz
      dof rx rz ry
   end
   begin
      id 16
      name RightShoulder
      direction -1.000000 0.000000 0.000000
      length 8.219464
      axis 0.0 0.0 90.0 xyz
      dof rx ry rz
   end
   begin
      id 17
      name RightArm
      direction -1.000000 0.000000 0.000000
      length 11.094937
      axis 0.0 0.0 90.0 xyz
      dof rx ry rz
   end
   begin
      id 18
      name RightForeArm
      direction -1.000000 0.000000 0.000000
      length 9.103875
      axis 0.0 0.0 90.0 xyz
      dof ry rz rx
   end
   begin
      id 19
      name RightHand
      direction 0.000000 0.000000 0.000000
      length 0.000000
      axis 0.0 0.0 90.0 xyz
      dof rx ry rz
   end
   begin
      id 20
      name RightHand_dum1
      direction 0.000000 0.000000 0.000000
      length 0.000000
      axis 0.0 0.0 90.0 xyz
   end
   begin
      id 21
      name RightHand_dum2
      direction -1.000000 0.000000 0.000000
      length 3.937000
      axis 0.0 0.0 90.0 xyz
   end
   begin
      id 22
      name RightHandThumb1
      direction 0.000000 0.000000 1.000000
      length 3.937000
      axis 0.0 0.0 90.0 xyz
      dof rx rz ry
   end
   begin
      id 23
      name LeftUpLeg
      direction 0.000000 -1.000000 0.000000
      length 16.181467
      axis 0.0 0.0 0.0 xyz
      dof rx ry rz
   end
   begin
      id 24
      name LeftLeg
      direction 0.000000 -1.000000 0.000000
      length 16.501392
      axis 0.0 0.0 0.0 xyz
      dof rx ry rz
   end
   begin
      id 25
      name LeftFoot
      direction 0.000000 -0.258819 0.965926
      length 6.408245
      axis 15.0 0.0 0.0 xyz
      dof rx ry rz
   end
   begin
      id 26
      name LeftToeBase
      direction 0.000000 0.000000 1.000000
      length 2.952750
      axis 0.0 0.0 0.0 xyz
      dof rx ry rz
   end
   begin
      id 27
      name RightUpLeg
      direction 0.000000 -1.000000 0.000000
      length 16.181467
      axis 0.0 0.0 0.0 xyz
      dof rx ry rz
   end
   begin
      id 28
      name RightLeg
      direction 0.000000 -1.000000 0.000000
      length 16.501392
      axis 0.0 0.0 0.0 xyz
      dof rx ry rz
   end
   begin
      id 29
      name RightFoot
      direction 0.000000 -0.258819 0.965926
      length 6.408245
      axis 15.0 0.0 0.0 xyz
      dof rx ry rz
   end
   begin
      id 30
      name RightToeBase
      direction 0.000000 0.000000 1.000000
      length 2.952750
      axis 0.0 0.0 0.0 xyz
      dof rx ry rz
   end
:hierarchy
   begin
      root Spine_dum LeftUpLeg_dum RightUpLeg_dum
      Spine_dum Spine
      LeftUpLeg_dum LeftUpLeg
      RightUpLeg_dum RightUpLeg
      Spine Spine_dum1 Spine_dum2 Spine_dum3
      Spine_dum1 Head
      Spine_dum2 LeftShoulder
      Spine_dum3 RightShoulder
      LeftShoulder LeftArm
      LeftArm LeftForeArm
      LeftForeArm LeftHand
      LeftHand LeftHand_dum1 LeftHand_dum2
      LeftHand_dum1 LeftHandThumb1
      RightShoulder RightArm
      RightArm RightForeArm
      RightForeArm RightHand
      RightHand RightHand_dum1 RightHand_dum2
      RightHand_dum1 RightHandThumb1
      LeftUpLeg LeftLeg
      LeftLeg LeftFoot
      LeftFoot LeftToeBase
      RightUpLeg RightLeg
      RightLeg RightFoot
      RightFoot RightToeBase
   end

# File created by Blade
# Date/Time:  Wed Apr 08 17:24:36 2015
# Frame Rate: 120.000 fps
#------------------------------------------------------
:FULLY-SPECIFIED
:DEGREES
633
root 6.896797 36.850869 3.118149 24.215395 -69.960214 -58.119661
Spine 43.684128 0.146067 18.094945
Head -9.960388 12.508142 2.457864
LeftShoulder -1.172858 15.714322 18.704606
LeftArm 24.211445 28.440089 -74.562489
LeftForeArm 9.956370 -0.000000 29.735098
LeftHand -15.032104 -0.000000 -4.435599
LeftHandThumb1 -26.253704 0.000000 33.147579
RightShoulder -19.283344 -44.360883 8.445020
RightArm 60.586083 -7.426644 52.416165
RightForeArm 58.497675 0.000000 37.920125
RightHand -0.121796 -0.000000 24.720666
RightHandThumb1 -24.326973 -0.000000 -32.862282
LeftUpLeg 33.608396 23.256421 27.703038
LeftLeg 17.572012 -0.000000 -0.000000
LeftFoot -19.310255 7.941989 -3.943142
LeftToeBase 5.715741 -0.000000 -0.000000
RightUpLeg -79.115679 -16.878684 1.977293
RightLeg 151.516824 -0.000000 -0.000000
RightFoot 15.102976 1.533815 8.911981
RightToeBase -8.683820 -0.000000 0.000000
634
root 6.899051 36.861419 3.106304 24.859420 -69.922215 -58.714141
Spine 43.674947 0.087489 18.053628
Head -9.962235 12.523296 2.538007
LeftShoulder -1.193652 15.676688 18.721497
LeftArm 24.214691 28.441144 -74.628376
LeftForeArm 10.217384 -0.000000 29.757609
LeftHand -14.957715 -0.000000 -4.817925
LeftHandThumb1 -26.253704 0.000000 33.147579
RightShoulder -19.369869 -44.336855 8.531075
RightArm 60.600516 -7.396858 52.508870
RightForeArm 58.535625 -0.000000 37.709282
RightHand -0.252410 0.000000 24.856081
RightHandThumb1 -24.326973 -0.000000 -32.862282
LeftUpLeg 33.561991 23.251225 27.823744
LeftLeg 17.499264 -0.000000 -0.000000
LeftFoot -19.291301 8.048731 -3.962479
LeftToeBase 5.717969 -0.000000 -0.000000
RightUpLeg -78.912553 -17.020492 1.724114
RightLeg 151.502042 -0.000000 -0.000000
RightFoot 15.318745 1.532491 9.044413
RightToeBase -8.723006 -0.000000 0.000000
635
root 6.901243 36.870779 3.096425 25.491996 -69.898488 -59.301795
Spine 43.668946 0.036347 18.006997
Head -9.938253 12.531913 2.613816
LeftShoulder -1.232382 15.655988 18.726842
LeftArm 24.276031 28.491738 -74.643238
LeftForeArm 10.261841 -0.000000 29.772014
LeftHand -14.907989 0.000000 -4.918814
LeftHandThumb1 -26.253704 0.000000 33.147579
RightShoulder -19.447655 -44.333302 8.614856
RightArm 60.573265 -7.380099 52.573639
RightForeArm 58.614435 -0.000000 37.591996
RightHand -0.251679 -0.000000 24.758318
RightHandThumb1 -24.326973 -0.000000 -32.862282
LeftUpLeg 33.550390 23.274579 27.957858
LeftLeg 17.398658 -0.000000 -0.000000
LeftFoot -19.269325 8.117004 -4.007419
LeftToeBase 5.697184 -0.000000 -0.000000
RightUpLeg -78.736542 -17.170049 1.485081
RightLeg 151.505582 -0.000000 -0.000000
RightFoot 15.488328 1.452140 9.141889
RightToeBase -8.432633 -0.000000 0.000000
636
root 6.904707 36.880498 3.089498 26.162235 -69.906626 -59.936087
Spine 43.676429 0.013499 17.971195
Head -9.900417 12.514346 2.666569
LeftShoulder -1.196387 15.664145 18.760358
LeftArm 24.346279 28.467422 -74.711418
LeftForeArm 10.304500 -0.000000 29.735216
LeftHand -14.794724 -0.000000 -4.848537
LeftHandThumb1 -26.253704 0.000000 33.147579
RightShoulder -19.524109 -44.328880 8.683996
RightArm 60.571565 -7.364953 52.623126
RightForeArm 58.712965 0.000000 37.400694
RightHand -0.182451 0.000000 24.810829
RightHandThumb1 -24.326973 -0.000000 -32.862282
LeftUpLeg 33.578968 23.380646 28.143909
LeftLeg 17.309227 -0.000000 -0.000000
LeftFoot -19.235516 8.158684 -3.978970
LeftToeBase 5.694464 -0.000000 -0.000000
RightUpLeg -78.543979 -17.314215 1.218922
RightLeg 151.497686 -0.000000 -0.000000
RightFoot 15.591951 1.414225 9.174211
RightToeBase -8.492877 -0.000000 0.000000
